<?xml version="1.0" encoding="utf-8"?>
<!-- Generator: Adobe Illustrator 16.0.0, SVG Export Plug-In . SVG Version: 6.00 Build 0)  -->
<!DOCTYPE svg PUBLIC "-//W3C//DTD SVG 1.1//EN" "http://www.w3.org/Graphics/SVG/1.1/DTD/svg11.dtd">
<svg version="1.1" id="Layer_1" xmlns="http://www.w3.org/2000/svg" xmlns:xlink="http://www.w3.org/1999/xlink" x="0px" y="0px"
	 width="200px" height="200px" viewBox="0 0 200 200" enable-background="new 0 0 200 200" xml:space="preserve">
<g>
	<g>
		<path fill="#272727" d="M186.75,190c-49.904,0-99.809,0-149.713,0c-10.679,0-21.358,0-32.037,0c1.667,1.667,3.333,3.333,5,5
			c0-49.793,0-99.586,0-149.379C10,32.081,10,18.54,10,5c-1.667,1.667-3.333,3.333-5,5c49.904,0,99.809,0,149.713,0
			c10.68,0,21.358,0,32.037,0c-1.667-1.667-3.333-3.333-5-5c0,49.793,0,99.586,0,149.379c0,13.541,0,27.081,0,40.621
			c0,6.448,10,6.448,10,0c0-49.793,0-99.586,0-149.379c0-13.54,0-27.081,0-40.621c0-2.726-2.274-5-5-5C136.846,0,86.941,0,37.037,0
			C26.358,0,15.679,0,5,0C2.274,0,0,2.274,0,5c0,49.793,0,99.586,0,149.379C0,167.92,0,181.46,0,195c0,2.726,2.274,5,5,5
			c49.904,0,99.809,0,149.713,0c10.68,0,21.358,0,32.037,0C193.198,200,193.198,190,186.75,190z"/>
	</g>
</g>
<g>
	<rect x="188.5" y="13.25" fill="#FFFFFF" width="4.75" height="28"/>
	<g>
		<path fill="#272727" d="M193.25,38.75c-1.583,0-3.167,0-4.75,0c0.833,0.833,1.667,1.667,2.5,2.5c0-9.333,0-18.667,0-28
			c-0.833,0.833-1.667,1.667-2.5,2.5c1.583,0,3.167,0,4.75,0c-0.833-0.833-1.667-1.667-2.5-2.5c0,9.333,0,18.667,0,28
			c0,3.224,5,3.224,5,0c0-9.333,0-18.667,0-28c0-1.363-1.137-2.5-2.5-2.5c-1.583,0-3.167,0-4.75,0c-1.363,0-2.5,1.137-2.5,2.5
			c0,9.333,0,18.667,0,28c0,1.363,1.137,2.5,2.5,2.5c1.583,0,3.167,0,4.75,0C196.475,43.75,196.475,38.75,193.25,38.75z"/>
	</g>
</g>
<circle fill="#272727" stroke="#272727" stroke-width="2" stroke-miterlimit="10" cx="95.875" cy="175.861" r="6.375"/>
</svg>
