<?xml version="1.0" encoding="utf-8"?>
<!-- Generator: Adobe Illustrator 16.0.0, SVG Export Plug-In . SVG Version: 6.00 Build 0)  -->
<!DOCTYPE svg PUBLIC "-//W3C//DTD SVG 1.1//EN" "http://www.w3.org/Graphics/SVG/1.1/DTD/svg11.dtd">
<svg version="1.1" id="Layer_1" xmlns="http://www.w3.org/2000/svg" xmlns:xlink="http://www.w3.org/1999/xlink" x="0px" y="0px"
	 width="105.668px" height="134.335px" viewBox="0 0 105.668 134.335" enable-background="new 0 0 105.668 134.335"
	 xml:space="preserve">
<path fill="#272727" d="M52.834,35.483c0-7.285,0-11.815,0-11.815H0v63.833c0,0,11.167,30.168,52.834,46.834
	c41.666-16.666,52.834-46.834,52.834-46.834v-52L52.834,35.483z"/>
<rect x="52.834" y="23.668" fill="#494849" width="13.124" height="11.833"/>
<rect x="52.833" fill="#B5B5B6" width="13.125" height="11.834"/>
<rect x="65.958" y="11.834" fill="#646665" width="13.125" height="11.834"/>
<rect x="79.083" y="11.834" fill="#848585" width="13.125" height="11.834"/>
<rect y="14.501" fill="#DD4A38" width="6" height="5.984"/>
<rect x="8.979" y="14.501" fill="#F8CE49" width="6" height="5.984"/>
<rect x="17.979" y="14.501" fill="#6292AA" width="6" height="5.984"/>
<rect x="92.207" y="17.684" fill="#EEF0F0" width="6" height="5.984"/>
<rect x="92.207" y="23.668" fill="#D6D6D6" width="6" height="5.984"/>
<g>
	<path fill="#FFFFFF" d="M57.844,61.873c2.06-3.172,4.657-4.758,7.793-4.758c1.768,0,3.244,0.492,4.43,1.477
		c1.185,0.984,1.777,2.425,1.777,4.32c0,1.896-0.311,4.084-0.93,6.562l-1.312,5.468c-0.292,1.186-0.438,2.152-0.438,2.898
		c0,0.748,0.159,1.336,0.479,1.764c0.318,0.43,0.916,0.643,1.791,0.643s1.485-0.117,1.832-0.355
		c-0.273,2.023-1.003,3.492-2.188,4.402c-1.186,0.912-2.416,1.367-3.691,1.367c-2.206,0-3.746-0.596-4.621-1.791
		c-0.875-1.193-1.312-2.629-1.312-4.307c0-1.676,0.419-4.191,1.258-7.546c0.838-3.354,1.258-5.669,1.258-6.945
		c0-1.914-0.675-2.871-2.023-2.871c-1.349,0-2.552,1.066-3.609,3.199c-0.31,0.602-0.565,1.258-0.766,1.969L53.77,85.333h-8.066
		l4.102-19.332c0.109-0.438,0.164-0.902,0.164-1.395c0-1.641-0.552-2.461-1.654-2.461c-1.103,0-2.042,0.516-2.816,1.545
		c-0.775,1.03-1.363,2.256-1.764,3.678l-3.801,17.964h-8.066l5.934-28h8.066l-0.602,2.898c1.859-2.114,4.138-3.172,6.836-3.172
		C55.401,57.06,57.315,58.665,57.844,61.873z"/>
</g>
</svg>
