<?xml version="1.0" encoding="utf-8"?>
<!-- Generator: Adobe Illustrator 16.0.0, SVG Export Plug-In . SVG Version: 6.00 Build 0)  -->
<!DOCTYPE svg PUBLIC "-//W3C//DTD SVG 1.1//EN" "http://www.w3.org/Graphics/SVG/1.1/DTD/svg11.dtd">
<svg version="1.1" id="Layer_1" xmlns="http://www.w3.org/2000/svg" xmlns:xlink="http://www.w3.org/1999/xlink" x="0px" y="0px"
	 width="68.605px" height="109.423px" viewBox="0 0 68.605 109.423" enable-background="new 0 0 68.605 109.423"
	 xml:space="preserve">
<g>
	<g>
		<path fill="#FFFFFF" d="M31.803,2.418c0,34.833,0,69.667,0,104.5c0,3.224,5,3.224,5,0c0-34.833,0-69.667,0-104.5
			C36.803-0.806,31.803-0.806,31.803,2.418L31.803,2.418z"/>
	</g>
</g>
<g>
	<g>
		<path fill="#FFFFFF" d="M64.333,73.353c-10.6,10.599-21.199,21.198-31.798,31.798c-2.282,2.282,1.253,5.817,3.535,3.535
			c10.6-10.599,21.199-21.198,31.798-31.798C70.15,74.606,66.615,71.07,64.333,73.353L64.333,73.353z"/>
	</g>
</g>
<g>
	<g>
		<path fill="#FFFFFF" d="M36.07,105.15c-10.599-10.6-21.198-21.199-31.798-31.798c-2.282-2.282-5.817,1.253-3.535,3.535
			c10.599,10.6,21.198,21.199,31.798,31.798C34.817,110.968,38.353,107.432,36.07,105.15L36.07,105.15z"/>
	</g>
</g>
</svg>
